<?xml version="1.0" encoding="UTF-8" standalone="no"?>
<svg
   width="59.911018"
   height="29.688"
   viewBox="0 0 59.911018 29.688"
   fill="none"
   version="1.1"
   id="svg4"
   sodipodi:docname="f42234dcebf7601f2dd97a1d20d6b676.svg"
   xmlns:inkscape="http://www.inkscape.org/namespaces/inkscape"
   xmlns:sodipodi="http://sodipodi.sourceforge.net/DTD/sodipodi-0.dtd"
   xmlns="http://www.w3.org/2000/svg"
   xmlns:svg="http://www.w3.org/2000/svg">
  <defs
     id="defs8" />
  <sodipodi:namedview
     id="namedview6"
     pagecolor="#ffffff"
     bordercolor="#666666"
     borderopacity="1.0"
     inkscape:pageshadow="2"
     inkscape:pageopacity="0.0"
     inkscape:pagecheckerboard="0" />
  <path
     d="m 1.3860162,25.294 c 1.702,2.692 4.71,4.394 8.074,4.394 2.6529998,0 5.0669998,-0.99 6.8479998,-2.771 1.821,-1.82 2.85,-4.236 2.85,-7.006 V 9.817 c 0,-2.613 -0.87,-4.869 -2.533,-6.73 -1.781,-1.9 -4.314,-3.087 -7.0459998,-3.047 -2.691,-0.04 -5.185,1.069 -6.887,2.929 A 9.413,9.413 0 0 0 1.6173894e-5,9.539 9.615,9.615 0 0 0 2.7700162,16.309 c 1.743,1.662 4.118,2.691 6.65,2.691 3.0489998,0 5.6999998,-1.544 7.4029998,-3.84 v 4.75 c 0,1.94 -0.712,3.761 -1.98,5.107 -1.266,1.504 -3.245,2.454 -5.3829998,2.454 -2.612,0 -4.947,-1.425 -6.214,-3.523 z m 7.64,-22.84 a 7.288,7.288 0 0 1 5.3429998,1.9 7.183,7.183 0 0 1 2.256,4.632 c 0.119,1.9 -0.435,3.68 -1.583,5.027 -1.188,1.464 -2.93,2.414 -4.948,2.573 -1.9399998,0.118 -3.6809998,-0.475 -5.0669998,-1.623 a 7.109,7.109 0 0 1 -2.533,-4.909 7.333,7.333 0 0 1 1.504,-4.908 c 1.188,-1.544 3.008,-2.533 5.027,-2.692 z M 31.696016,29.688 c -2.572,0 -5.027,-1.069 -6.65,-2.89 -1.543,-1.702 -2.335,-3.76 -2.335,-6.214 V 9.064 c 0,-2.453 0.831,-4.59 2.454,-6.332 1.623,-1.703 3.998,-2.732 6.531,-2.732 2.534,0 4.83,0.99 6.492,2.732 1.663,1.702 2.494,3.84 2.494,6.333 v 11.519 c 0,2.375 -0.792,4.472 -2.296,6.175 -1.663,1.86 -4.077,2.929 -6.69,2.929 z m 0,-27.471 c -2.256,0 -4.314,1.187 -5.502,2.93 -0.791,1.107 -1.187,2.453 -1.187,3.918 v 11.519 c 0,1.385 0.356,2.73 1.148,3.879 1.187,1.82 3.246,3.008 5.541,2.968 2.296,0.04 4.355,-1.147 5.582,-2.968 0.752,-1.148 1.108,-2.415 1.108,-3.88 V 9.066 c 0,-1.465 -0.396,-2.771 -1.148,-3.919 -1.227,-1.742 -3.285,-2.93 -5.542,-2.93 z m 15.834,18.674 a 3.935,3.935 0 0 0 3.938,-3.938 3.935,3.935 0 0 0 -3.938,-3.937 c -2.1,0 -3.938,1.794 -3.938,3.937 a 3.935,3.935 0 0 0 3.938,3.938 z m -2.078,7.831 13.803,-13.781 -1.203,-1.203 -13.803,13.781 z m 2.078,-9.275 c -1.356,0 -2.494,-1.137 -2.494,-2.494 0,-1.356 1.138,-2.493 2.494,-2.493 1.356,0 2.494,1.137 2.494,2.493 0,1.357 -1.138,2.494 -2.494,2.494 z m 8.444,9.975 a 3.935,3.935 0 0 0 3.937,-3.937 3.935,3.935 0 0 0 -3.937,-3.938 c -2.1,0 -3.938,1.794 -3.938,3.938 a 3.935,3.935 0 0 0 3.938,3.937 z m 0,-1.444 c -1.357,0 -2.494,-1.137 -2.494,-2.493 0,-1.357 1.138,-2.494 2.494,-2.494 1.356,0 2.493,1.137 2.493,2.494 0,1.356 -1.137,2.493 -2.493,2.493 z"
     fill="#0d0d0d"
     id="path2" />
</svg>
